<svg width="1422" height="424" viewBox="0 0 1422 424" fill="none" xmlns="http://www.w3.org/2000/svg">
<rect width="1422" height="424" />
<path d="M352.169 147.246C336.121 129.345 312.776 118.043 286.814 118.043C238.53 118.043 199.248 157.101 199.248 205.108C199.249 237.113 173.061 263.152 140.871 263.152C108.681 263.152 82.4939 237.112 82.4939 205.108C82.493 197.094 75.9586 190.597 67.8996 190.597C59.8386 190.596 53.3052 197.094 53.3052 205.107C53.3052 269.692 92.0824 325.439 147.703 350.542C167.882 359.651 190.278 364.727 213.843 364.727C302.364 364.727 374.381 293.123 374.381 205.108C374.38 182.912 365.97 162.64 352.169 147.246Z" fill="#FF4B0C"/>
<path d="M374.381 205.108C374.38 182.912 365.97 162.64 352.169 147.246L147.703 350.542C167.882 359.651 190.278 364.727 213.843 364.727C302.364 364.727 374.381 293.123 374.381 205.108Z" fill="#FF2300"/>
<path d="M322.182 169.96L301.41 129.096V74.5108C301.41 66.497 294.874 60 286.815 60C278.755 59.999 272.221 66.497 272.221 74.5108V129.096L251.448 169.961C247.813 177.114 250.698 185.843 257.89 189.457C260.001 190.518 262.248 191.019 264.462 191.018C269.793 191.018 274.929 188.104 277.498 183.051L286.813 164.727L296.129 183.051C298.697 188.105 303.833 191.019 309.165 191.019C311.377 191.019 313.626 190.517 315.736 189.457C322.93 185.842 325.815 177.114 322.182 169.96Z" fill="#00B10E"/>
<path d="M526.461 317.304C513.597 317.304 501.021 315.768 488.733 312.696C476.445 309.432 466.653 305.4 459.357 300.6L474.333 268.344C481.245 272.76 489.597 276.408 499.389 279.288C509.181 281.976 518.781 283.32 528.189 283.32C547.197 283.32 556.701 278.616 556.701 269.208C556.701 264.792 554.109 261.624 548.925 259.704C543.741 257.784 535.773 256.152 525.021 254.808C512.349 252.888 501.885 250.68 493.629 248.184C485.373 245.688 478.173 241.272 472.029 234.936C466.077 228.6 463.101 219.576 463.101 207.864C463.101 198.072 465.885 189.432 471.453 181.944C477.213 174.264 485.469 168.312 496.221 164.088C507.165 159.864 520.029 157.752 534.813 157.752C545.757 157.752 556.605 159 567.357 161.496C578.301 163.8 587.325 167.064 594.429 171.288L579.453 203.256C565.821 195.576 550.941 191.736 534.813 191.736C525.213 191.736 518.013 193.08 513.213 195.768C508.413 198.456 506.013 201.912 506.013 206.136C506.013 210.936 508.605 214.296 513.789 216.216C518.973 218.136 527.229 219.96 538.557 221.688C551.229 223.8 561.597 226.104 569.661 228.6C577.725 230.904 584.733 235.224 590.685 241.56C596.637 247.896 599.613 256.728 599.613 268.056C599.613 277.656 596.733 286.2 590.973 293.688C585.213 301.176 576.765 307.032 565.629 311.256C554.685 315.288 541.629 317.304 526.461 317.304ZM713.157 157.752C727.557 157.752 740.613 161.112 752.325 167.832C764.229 174.36 773.541 183.672 780.261 195.768C786.981 207.672 790.341 221.592 790.341 237.528C790.341 253.464 786.981 267.48 780.261 279.576C773.541 291.48 764.229 300.792 752.325 307.512C740.613 314.04 727.557 317.304 713.157 317.304C693.381 317.304 677.829 311.064 666.501 298.584V370.872H621.573V160.056H664.485V177.912C675.621 164.472 691.845 157.752 713.157 157.752ZM705.381 280.44C716.901 280.44 726.309 276.6 733.605 268.92C741.093 261.048 744.837 250.584 744.837 237.528C744.837 224.472 741.093 214.104 733.605 206.424C726.309 198.552 716.901 194.616 705.381 194.616C693.861 194.616 684.357 198.552 676.869 206.424C669.573 214.104 665.925 224.472 665.925 237.528C665.925 250.584 669.573 261.048 676.869 268.92C684.357 276.6 693.861 280.44 705.381 280.44ZM814.657 160.056H859.585V315H814.657V160.056ZM837.121 138.456C828.865 138.456 822.145 136.056 816.961 131.256C811.777 126.456 809.185 120.504 809.185 113.4C809.185 106.296 811.777 100.344 816.961 95.544C822.145 90.744 828.865 88.344 837.121 88.344C845.377 88.344 852.097 90.648 857.281 95.256C862.465 99.864 865.057 105.624 865.057 112.536C865.057 120.024 862.465 126.264 857.281 131.256C852.097 136.056 845.377 138.456 837.121 138.456ZM970.402 317.304C953.89 317.304 939.01 313.944 925.762 307.224C912.706 300.312 902.434 290.808 894.946 278.712C887.65 266.616 884.002 252.888 884.002 237.528C884.002 222.168 887.65 208.44 894.946 196.344C902.434 184.248 912.706 174.84 925.762 168.12C939.01 161.208 953.89 157.752 970.402 157.752C986.722 157.752 1000.93 161.208 1013.03 168.12C1025.31 174.84 1034.24 184.536 1039.81 197.208L1004.96 215.928C996.898 201.72 985.282 194.616 970.114 194.616C958.402 194.616 948.706 198.456 941.026 206.136C933.346 213.816 929.506 224.28 929.506 237.528C929.506 250.776 933.346 261.24 941.026 268.92C948.706 276.6 958.402 280.44 970.114 280.44C985.474 280.44 997.09 273.336 1004.96 259.128L1039.81 278.136C1034.24 290.424 1025.31 300.024 1013.03 306.936C1000.93 313.848 986.722 317.304 970.402 317.304ZM1209.73 238.104C1209.73 238.68 1209.44 242.712 1208.86 250.2H1091.65C1093.76 259.8 1098.75 267.384 1106.62 272.952C1114.49 278.52 1124.29 281.304 1136 281.304C1144.06 281.304 1151.17 280.152 1157.31 277.848C1163.65 275.352 1169.5 271.512 1174.88 266.328L1198.78 292.248C1184.19 308.952 1162.88 317.304 1134.85 317.304C1117.37 317.304 1101.92 313.944 1088.48 307.224C1075.04 300.312 1064.67 290.808 1057.37 278.712C1050.08 266.616 1046.43 252.888 1046.43 237.528C1046.43 222.36 1049.98 208.728 1057.09 196.632C1064.38 184.344 1074.27 174.84 1086.75 168.12C1099.42 161.208 1113.53 157.752 1129.09 157.752C1144.25 157.752 1157.98 161.016 1170.27 167.544C1182.56 174.072 1192.16 183.48 1199.07 195.768C1206.17 207.864 1209.73 221.976 1209.73 238.104ZM1129.37 191.736C1119.2 191.736 1110.65 194.616 1103.74 200.376C1096.83 206.136 1092.61 214.008 1091.07 223.992H1167.39C1165.85 214.2 1161.63 206.424 1154.72 200.664C1147.81 194.712 1139.36 191.736 1129.37 191.736ZM1286 317.304C1273.14 317.304 1260.56 315.768 1248.28 312.696C1235.99 309.432 1226.2 305.4 1218.9 300.6L1233.88 268.344C1240.79 272.76 1249.14 276.408 1258.93 279.288C1268.72 281.976 1278.32 283.32 1287.73 283.32C1306.74 283.32 1316.24 278.616 1316.24 269.208C1316.24 264.792 1313.65 261.624 1308.47 259.704C1303.28 257.784 1295.32 256.152 1284.56 254.808C1271.89 252.888 1261.43 250.68 1253.17 248.184C1244.92 245.688 1237.72 241.272 1231.57 234.936C1225.62 228.6 1222.64 219.576 1222.64 207.864C1222.64 198.072 1225.43 189.432 1231 181.944C1236.76 174.264 1245.01 168.312 1255.76 164.088C1266.71 159.864 1279.57 157.752 1294.36 157.752C1305.3 157.752 1316.15 159 1326.9 161.496C1337.84 163.8 1346.87 167.064 1353.97 171.288L1339 203.256C1325.36 195.576 1310.48 191.736 1294.36 191.736C1284.76 191.736 1277.56 193.08 1272.76 195.768C1267.96 198.456 1265.56 201.912 1265.56 206.136C1265.56 210.936 1268.15 214.296 1273.33 216.216C1278.52 218.136 1286.77 219.96 1298.1 221.688C1310.77 223.8 1321.14 226.104 1329.2 228.6C1337.27 230.904 1344.28 235.224 1350.23 241.56C1356.18 247.896 1359.16 256.728 1359.16 268.056C1359.16 277.656 1356.28 286.2 1350.52 293.688C1344.76 301.176 1336.31 307.032 1325.17 311.256C1314.23 315.288 1301.17 317.304 1286 317.304Z" fill="white"/>
</svg>
